<svg xmlns="http://www.w3.org/2000/svg" shape-rendering="geometricPrecision" text-rendering="geometricPrecision" image-rendering="optimizeQuality" fill-rule="evenodd" clip-rule="evenodd" viewBox="0 0 470 512.53"><path fill-rule="nonzero" d="M10.27 511.8c5.86-24.44 13.8-51.69 23.82-81.76 10.02-30.06 21.51-61.47 34.47-94.22 12.95-32.75 26.27-65.26 39.96-97.52 13.69-32.26 26.88-63.18 39.59-92.76 12.71-29.57 27.38-59.5 44-89.81 3.42-5.87 6.48-11.24 9.16-16.14 2.69-4.89 5.75-9.04 9.17-12.46-19.07.49-39.48 2.81-61.23 6.96-21.75 4.16-42.52 9.9-62.32 17.24-19.8 7.33-36.66 15.88-50.59 25.66-13.94 9.77-22.86 20.53-26.77 32.26-.49 1.47-1.47 2.2-2.93 2.2-4.4 0-6.6-3.42-6.6-10.27 0-1.46.49-3.66 1.47-6.59 4.39-12.71 9.89-23.96 16.49-33.73 6.6-9.78 13.32-18.09 20.16-24.93C54.26 19.31 72.34 9.17 92.38 5.5c20.05-3.67 41.31-5.5 63.8-5.5h178.17c20.53 0 38.86 2.08 55 6.23 16.13 4.16 29.57 9.9 40.32 17.23 14.18 9.29 24.45 20.66 30.8 34.1C466.82 71 470 85.05 470 99.72c0 22.49-4.89 42.53-14.66 60.13-9.78 17.59-22.61 32.75-38.5 45.46-15.88 12.71-33.6 22.97-53.16 30.79-19.55 7.82-39.35 13.69-59.39 17.6l-23.46 4.4c11.73 39.59 26.64 75.28 44.73 107.05 18.08 31.77 36.9 59.64 56.45 83.59 19.56 23.95 37.16 44.48 52.79 61.59-7.33 1.47-18.57 2.2-33.72 2.2-13.2 0-25.91-.36-38.13-1.1-12.22-.73-18.33-1.1-18.33-1.1-12.22 0-24.2-6.6-35.93-19.8-11.73-13.19-22.97-30.18-33.73-50.96-10.75-20.77-20.4-42.52-28.96-65.25-8.56-22.73-15.65-43.88-21.27-63.43-5.62-19.55-9.41-34.71-11.36-45.46 0-1.47-.12-2.93-.36-4.4-.25-1.46-.37-3.18-.37-5.13 0-2.93.61-5.5 1.83-7.7 1.22-2.2 3.79-3.54 7.7-4.03 24.44-2.93 46.68-7.34 66.72-13.2 20.04-6.35 38.38-15.03 55-26.03 16.62-11 30.06-24.69 40.32-41.06 10.27-16.38 15.4-35.81 15.4-58.29 0-18.09-5.01-34.59-15.03-49.5-10.02-14.91-26.03-24.81-48.02-29.69-5.87-1.47-12.1-2.45-18.7-2.94-6.61-.48-13.32-.97-20.17-1.47-10.75 14.67-22 32.27-33.73 52.8-11.73 20.53-23.22 42.16-34.46 64.89a2098.749 2098.749 0 00-31.9 67.46c-10.01 22.24-18.94 42.65-26.76 61.23-3.91 10.26-9.65 25.17-17.23 44.72-7.57 19.56-15.27 40.82-23.09 63.79-7.83 22.98-14.55 45.1-20.17 66.36-5.62 21.26-8.43 38.74-8.43 52.43 0 7.33.97 12.71 2.93 16.13H10.27z"/></svg>